M48
INCH,TZ
T1C0.0118
T2C0.0295
T3C0.0315
T4C0.0394
%
G90
G05
T1
X-660Y-1503
X-660Y-1896
X-660Y-2290
X-266Y-1503
X-266Y-1896
X-266Y-2290
X127Y-1503
X127Y-1896
X127Y-2290
X521Y-1503
X521Y-1896
X521Y-2290
X3980Y-965
X4275Y-965
X4571Y-965
X4869Y-3470
X5165Y-3470
X5460Y-3470
X5590Y-2510
X5885Y-2510
X6181Y-2510
T2
X2067Y-63
X2067Y-813
T3
X5079Y-1949
X6063Y-1949
T4
X-3000Y-1981
X-3000Y-2981
X3000Y3019
X3000Y2019
X3000Y-981
X3000Y-1981
X3000Y-2981
M30
