%TF.GenerationSoftware,KiCad,Pcbnew,9.0.1-9.0.1-0~ubuntu22.04.1*%
%TF.CreationDate,2025-05-27T18:32:29-04:00*%
%TF.ProjectId,Omi-Glass-DevKit,4f6d692d-476c-4617-9373-2d4465764b69,rev?*%
%TF.SameCoordinates,Original*%
%TF.FileFunction,Legend,Bot*%
%TF.FilePolarity,Positive*%
%FSLAX46Y46*%
G04 Gerber Fmt 4.6, Leading zero omitted, Abs format (unit mm)*
G04 Created by KiCad (PCBNEW 9.0.1-9.0.1-0~ubuntu22.04.1) date 2025-05-27 18:32:29*
%MOMM*%
%LPD*%
G01*
G04 APERTURE LIST*
%ADD10C,0.100000*%
%ADD11C,0.120000*%
G04 APERTURE END LIST*
D10*
G36*
X15293728Y-1223500D02*
G01*
X15071253Y-1223500D01*
X15018468Y-1219921D01*
X14971759Y-1209651D01*
X14930203Y-1193122D01*
X14901088Y-1176144D01*
X14875766Y-1156338D01*
X14853895Y-1133620D01*
X14835253Y-1107789D01*
X14820583Y-1079734D01*
X14809934Y-1049094D01*
X14803360Y-1015465D01*
X14801090Y-978371D01*
X14915731Y-978371D01*
X14918085Y-1008852D01*
X14924833Y-1035579D01*
X14935729Y-1059185D01*
X14950805Y-1080275D01*
X14969310Y-1097800D01*
X14991599Y-1112033D01*
X15016164Y-1122092D01*
X15044268Y-1128387D01*
X15076565Y-1130596D01*
X15180063Y-1130596D01*
X15180063Y-826391D01*
X15076565Y-826391D01*
X15044270Y-828603D01*
X15016166Y-834909D01*
X14991599Y-844984D01*
X14969289Y-859181D01*
X14950787Y-876600D01*
X14935729Y-897496D01*
X14924859Y-920875D01*
X14918098Y-947605D01*
X14915731Y-978371D01*
X14801090Y-978371D01*
X14803362Y-941257D01*
X14809939Y-907645D01*
X14820588Y-877054D01*
X14835253Y-849075D01*
X14853887Y-823321D01*
X14875754Y-800652D01*
X14901079Y-780870D01*
X14930203Y-763896D01*
X14971760Y-747349D01*
X15018470Y-737069D01*
X15071253Y-733487D01*
X15293728Y-733487D01*
X15293728Y-1223500D01*
G37*
G36*
X14536819Y-1228812D02*
G01*
X14579228Y-1225859D01*
X14616589Y-1217393D01*
X14649690Y-1203777D01*
X14679837Y-1184715D01*
X14704628Y-1161820D01*
X14724611Y-1134839D01*
X14739251Y-1104602D01*
X14748149Y-1071561D01*
X14751203Y-1035066D01*
X14748199Y-998197D01*
X14739476Y-965040D01*
X14725191Y-934927D01*
X14705671Y-907879D01*
X14681943Y-885149D01*
X14653598Y-866416D01*
X14622390Y-852804D01*
X14588274Y-844486D01*
X14550649Y-841626D01*
X14514300Y-844332D01*
X14481226Y-852208D01*
X14450876Y-865104D01*
X14423336Y-882999D01*
X14400039Y-905247D01*
X14380626Y-932240D01*
X14366565Y-962345D01*
X14357807Y-996887D01*
X14354736Y-1036776D01*
X14355225Y-1051095D01*
X14356415Y-1065841D01*
X14662543Y-1065841D01*
X14662543Y-1002215D01*
X14414240Y-1002215D01*
X14456433Y-1021236D01*
X14459241Y-993409D01*
X14468065Y-970220D01*
X14482408Y-950662D01*
X14501099Y-935995D01*
X14523404Y-926854D01*
X14550100Y-923661D01*
X14576872Y-926846D01*
X14599467Y-935995D01*
X14618348Y-950738D01*
X14632501Y-970433D01*
X14641158Y-993894D01*
X14644225Y-1022518D01*
X14644225Y-1039554D01*
X14640711Y-1068943D01*
X14630639Y-1093593D01*
X14614280Y-1114050D01*
X14592079Y-1129344D01*
X14565638Y-1138611D01*
X14533613Y-1141892D01*
X14504781Y-1139497D01*
X14480979Y-1132794D01*
X14459402Y-1121445D01*
X14439000Y-1105011D01*
X14380901Y-1168056D01*
X14399708Y-1186145D01*
X14421384Y-1201187D01*
X14446266Y-1213272D01*
X14472736Y-1221676D01*
X14502742Y-1226960D01*
X14536819Y-1228812D01*
G37*
G36*
X14155556Y-1228812D02*
G01*
X14202671Y-1225900D01*
X14247727Y-1217271D01*
X14289400Y-1203570D01*
X14318588Y-1188481D01*
X14281952Y-1110354D01*
X14254646Y-1124606D01*
X14220922Y-1136427D01*
X14185437Y-1143903D01*
X14150793Y-1146349D01*
X14116131Y-1143608D01*
X14097365Y-1137221D01*
X14088317Y-1130103D01*
X14083233Y-1121871D01*
X14081520Y-1112094D01*
X14084538Y-1100722D01*
X14093854Y-1092250D01*
X14107330Y-1086513D01*
X14126400Y-1081869D01*
X14170913Y-1074939D01*
X14219670Y-1065474D01*
X14243248Y-1057884D01*
X14264336Y-1047645D01*
X14282546Y-1033785D01*
X14296881Y-1015588D01*
X14305854Y-993305D01*
X14309185Y-962801D01*
X14306833Y-939810D01*
X14299939Y-919039D01*
X14288424Y-899969D01*
X14273100Y-883563D01*
X14253448Y-869286D01*
X14228737Y-857166D01*
X14202355Y-848842D01*
X14171414Y-843519D01*
X14135162Y-841626D01*
X14096136Y-843691D01*
X14056455Y-849961D01*
X14018848Y-860550D01*
X13990051Y-873957D01*
X14026687Y-952085D01*
X14054435Y-938369D01*
X14081489Y-930042D01*
X14108825Y-925545D01*
X14134734Y-924088D01*
X14168843Y-926985D01*
X14188376Y-933919D01*
X14198109Y-941480D01*
X14203407Y-949640D01*
X14205137Y-958771D01*
X14202076Y-970938D01*
X14192803Y-979806D01*
X14179288Y-985891D01*
X14160258Y-990950D01*
X14115745Y-998338D01*
X14067140Y-1007925D01*
X14043660Y-1015546D01*
X14022627Y-1025693D01*
X14004385Y-1039348D01*
X13990051Y-1057323D01*
X13981051Y-1079347D01*
X13977717Y-1109438D01*
X13980069Y-1131889D01*
X13986988Y-1152309D01*
X13998600Y-1171201D01*
X14013970Y-1187366D01*
X14033873Y-1201487D01*
X14059111Y-1213516D01*
X14085983Y-1221678D01*
X14117853Y-1226933D01*
X14155556Y-1228812D01*
G37*
G36*
X13910458Y-1223500D02*
G01*
X13910458Y-846938D01*
X13801251Y-846938D01*
X13801251Y-1223500D01*
X13910458Y-1223500D01*
G37*
G36*
X13856084Y-794609D02*
G01*
X13875583Y-792523D01*
X13891748Y-786608D01*
X13905299Y-776993D01*
X13915868Y-764248D01*
X13922098Y-749939D01*
X13924228Y-733518D01*
X13922099Y-717117D01*
X13915869Y-702818D01*
X13905299Y-690073D01*
X13891748Y-680458D01*
X13875583Y-674543D01*
X13856084Y-672457D01*
X13836494Y-674443D01*
X13820319Y-680051D01*
X13806838Y-689096D01*
X13796304Y-701225D01*
X13790061Y-715179D01*
X13787910Y-731564D01*
X13790046Y-748841D01*
X13796239Y-763675D01*
X13806625Y-776657D01*
X13820078Y-786439D01*
X13836306Y-792473D01*
X13856084Y-794609D01*
G37*
G36*
X13574092Y-844191D02*
G01*
X13605509Y-851694D01*
X13634647Y-864035D01*
X13661203Y-881064D01*
X13683719Y-902043D01*
X13702547Y-927294D01*
X13716369Y-955521D01*
X13724873Y-987235D01*
X13727826Y-1023190D01*
X13724873Y-1059144D01*
X13716369Y-1090858D01*
X13702547Y-1119086D01*
X13683733Y-1144363D01*
X13661216Y-1165468D01*
X13634647Y-1182711D01*
X13605491Y-1195243D01*
X13574077Y-1202854D01*
X13539911Y-1205456D01*
X13508386Y-1203163D01*
X13480557Y-1196576D01*
X13455831Y-1185947D01*
X13433772Y-1170838D01*
X13420690Y-1157085D01*
X13420690Y-1174376D01*
X13423994Y-1207502D01*
X13432982Y-1232577D01*
X13446977Y-1251496D01*
X13460748Y-1262054D01*
X13478655Y-1270133D01*
X13501696Y-1275457D01*
X13531119Y-1277416D01*
X13567238Y-1274547D01*
X13603964Y-1265784D01*
X13638201Y-1251757D01*
X13664597Y-1234551D01*
X13708103Y-1313198D01*
X13685000Y-1328349D01*
X13657714Y-1341215D01*
X13625641Y-1351635D01*
X13575636Y-1361332D01*
X13523059Y-1364611D01*
X13481322Y-1362303D01*
X13445573Y-1355796D01*
X13414959Y-1345579D01*
X13388747Y-1331936D01*
X13366346Y-1314938D01*
X13347626Y-1294280D01*
X13332615Y-1269351D01*
X13321325Y-1239439D01*
X13314078Y-1203604D01*
X13311483Y-1160729D01*
X13311483Y-1023190D01*
X13419286Y-1023190D01*
X13422538Y-1049415D01*
X13431926Y-1071672D01*
X13446896Y-1090249D01*
X13466852Y-1104340D01*
X13490395Y-1113029D01*
X13518174Y-1116063D01*
X13545443Y-1113055D01*
X13569190Y-1104340D01*
X13589437Y-1090235D01*
X13604605Y-1071672D01*
X13614086Y-1049407D01*
X13617367Y-1023190D01*
X13614073Y-996757D01*
X13604605Y-974586D01*
X13589433Y-956200D01*
X13569190Y-942407D01*
X13545462Y-933945D01*
X13518174Y-931019D01*
X13490375Y-933970D01*
X13466852Y-942407D01*
X13446901Y-956186D01*
X13431926Y-974586D01*
X13422551Y-996749D01*
X13419286Y-1023190D01*
X13311483Y-1023190D01*
X13311483Y-846938D01*
X13415531Y-846938D01*
X13415531Y-894772D01*
X13433787Y-875697D01*
X13455831Y-860799D01*
X13480538Y-850359D01*
X13508368Y-843882D01*
X13539911Y-841626D01*
X13574092Y-844191D01*
G37*
G36*
X12981542Y-841626D02*
G01*
X12952001Y-843680D01*
X12925419Y-849623D01*
X12901339Y-859272D01*
X12879610Y-873026D01*
X12861125Y-890987D01*
X12845621Y-913647D01*
X12834735Y-938952D01*
X12827705Y-970006D01*
X12825165Y-1008047D01*
X12825165Y-1223500D01*
X12934372Y-1223500D01*
X12934372Y-1024381D01*
X12936975Y-994703D01*
X12943906Y-973014D01*
X12954370Y-957366D01*
X12968997Y-945655D01*
X12987316Y-938385D01*
X13010424Y-935781D01*
X13035611Y-938595D01*
X13057288Y-946711D01*
X13075462Y-960332D01*
X13089344Y-979928D01*
X13097653Y-1004158D01*
X13100763Y-1037264D01*
X13100763Y-1223500D01*
X13209970Y-1223500D01*
X13209970Y-846938D01*
X13105922Y-846938D01*
X13105922Y-951321D01*
X13125462Y-919967D01*
X13109907Y-896336D01*
X13090687Y-877034D01*
X13067454Y-861654D01*
X13041622Y-850685D01*
X13013155Y-843950D01*
X12981542Y-841626D01*
G37*
G36*
X12528532Y-1223500D02*
G01*
X12424485Y-1223500D01*
X12424485Y-1178711D01*
X12412957Y-1192022D01*
X12391329Y-1208021D01*
X12366671Y-1219330D01*
X12338589Y-1226356D01*
X12306393Y-1228812D01*
X12271454Y-1226058D01*
X12239719Y-1218038D01*
X12210620Y-1204876D01*
X12184328Y-1186788D01*
X12162031Y-1164483D01*
X12143422Y-1137557D01*
X12129931Y-1107695D01*
X12121556Y-1073799D01*
X12118632Y-1035066D01*
X12229091Y-1035066D01*
X12232447Y-1065690D01*
X12241944Y-1090876D01*
X12257130Y-1111924D01*
X12276382Y-1126993D01*
X12299104Y-1136221D01*
X12325170Y-1139388D01*
X12351267Y-1136221D01*
X12374018Y-1126993D01*
X12393251Y-1111928D01*
X12408456Y-1090876D01*
X12417931Y-1065692D01*
X12421279Y-1035066D01*
X12417899Y-1003922D01*
X12408456Y-979073D01*
X12393286Y-958426D01*
X12374018Y-943445D01*
X12351265Y-934193D01*
X12325170Y-931019D01*
X12299105Y-934193D01*
X12276382Y-943445D01*
X12257096Y-958430D01*
X12241944Y-979073D01*
X12232479Y-1003924D01*
X12229091Y-1035066D01*
X12118632Y-1035066D01*
X12121556Y-996354D01*
X12129931Y-962479D01*
X12143422Y-932637D01*
X12162038Y-905701D01*
X12184336Y-883440D01*
X12210620Y-865439D01*
X12239713Y-852347D01*
X12271448Y-844366D01*
X12306393Y-841626D01*
X12337269Y-844063D01*
X12364776Y-851105D01*
X12389497Y-862570D01*
X12411291Y-878605D01*
X12419325Y-887693D01*
X12419325Y-704087D01*
X12528532Y-704087D01*
X12528532Y-1223500D01*
G37*
G36*
X12008906Y-1364611D02*
G01*
X12037688Y-1362373D01*
X12066639Y-1355574D01*
X12093450Y-1344449D01*
X12114113Y-1330325D01*
X12073874Y-1252656D01*
X12060308Y-1262635D01*
X12044840Y-1270303D01*
X12028334Y-1275157D01*
X12011959Y-1276744D01*
X11990906Y-1273843D01*
X11975536Y-1265876D01*
X11963254Y-1252495D01*
X11950990Y-1229911D01*
X11931084Y-1183841D01*
X11922444Y-1171812D01*
X11787255Y-846938D01*
X11682658Y-846938D01*
X11852407Y-1246825D01*
X11873052Y-1288832D01*
X11894295Y-1317930D01*
X11910892Y-1333783D01*
X11928144Y-1345732D01*
X11946196Y-1354169D01*
X11975628Y-1361921D01*
X12008906Y-1364611D01*
G37*
G36*
X11944365Y-1238032D02*
G01*
X12112220Y-846938D01*
X11999655Y-846938D01*
X11869229Y-1162042D01*
X11944365Y-1238032D01*
G37*
G36*
X11497339Y-1223500D02*
G01*
X11278925Y-733487D01*
X11166787Y-733487D01*
X10947945Y-1223500D01*
X11066373Y-1223500D01*
X11246105Y-791220D01*
X11201134Y-791220D01*
X11380896Y-1223500D01*
X11497339Y-1223500D01*
G37*
G36*
X11387674Y-1118689D02*
G01*
X11357937Y-1032624D01*
X11105512Y-1032624D01*
X11075348Y-1118689D01*
X11387674Y-1118689D01*
G37*
G36*
X10904317Y-1223500D02*
G01*
X10904317Y-704087D01*
X10795110Y-704087D01*
X10795110Y-1223500D01*
X10904317Y-1223500D01*
G37*
G36*
X10507301Y-1228812D02*
G01*
X10549709Y-1225859D01*
X10587071Y-1217393D01*
X10620171Y-1203777D01*
X10650318Y-1184715D01*
X10675109Y-1161820D01*
X10695093Y-1134839D01*
X10709732Y-1104602D01*
X10718631Y-1071561D01*
X10721685Y-1035066D01*
X10718680Y-998197D01*
X10709958Y-965040D01*
X10695673Y-934927D01*
X10676152Y-907879D01*
X10652424Y-885149D01*
X10624079Y-866416D01*
X10592872Y-852804D01*
X10558755Y-844486D01*
X10521131Y-841626D01*
X10484782Y-844332D01*
X10451708Y-852208D01*
X10421358Y-865104D01*
X10393817Y-882999D01*
X10370520Y-905247D01*
X10351107Y-932240D01*
X10337046Y-962345D01*
X10328288Y-996887D01*
X10325218Y-1036776D01*
X10325706Y-1051095D01*
X10326897Y-1065841D01*
X10633025Y-1065841D01*
X10633025Y-1002215D01*
X10384721Y-1002215D01*
X10426914Y-1021236D01*
X10429723Y-993409D01*
X10438546Y-970220D01*
X10452889Y-950662D01*
X10471580Y-935995D01*
X10493886Y-926854D01*
X10520581Y-923661D01*
X10547353Y-926846D01*
X10569949Y-935995D01*
X10588830Y-950738D01*
X10602983Y-970433D01*
X10611639Y-993894D01*
X10614706Y-1022518D01*
X10614706Y-1039554D01*
X10611193Y-1068943D01*
X10601120Y-1093593D01*
X10584761Y-1114050D01*
X10562561Y-1129344D01*
X10536120Y-1138611D01*
X10504095Y-1141892D01*
X10475263Y-1139497D01*
X10451461Y-1132794D01*
X10429884Y-1121445D01*
X10409481Y-1105011D01*
X10351382Y-1168056D01*
X10370189Y-1186145D01*
X10391865Y-1201187D01*
X10416748Y-1213272D01*
X10443218Y-1221676D01*
X10473223Y-1226960D01*
X10507301Y-1228812D01*
G37*
G36*
X10310990Y-1223500D02*
G01*
X10141791Y-1002521D01*
X10143867Y-1062696D01*
X10305526Y-846938D01*
X10183190Y-846938D01*
X10081189Y-987591D01*
X10127137Y-989087D01*
X10021776Y-846938D01*
X9905303Y-846938D01*
X10068060Y-1060498D01*
X10067633Y-1001269D01*
X9899686Y-1223500D01*
X10023975Y-1223500D01*
X10130892Y-1074053D01*
X10085096Y-1080190D01*
X10191434Y-1223500D01*
X10310990Y-1223500D01*
G37*
G36*
X9641460Y-1223500D02*
G01*
X9641460Y-733487D01*
X9527795Y-733487D01*
X9527795Y-1130870D01*
X9282514Y-1130870D01*
X9282514Y-1223500D01*
X9641460Y-1223500D01*
G37*
G36*
X9204998Y-1364611D02*
G01*
X9233780Y-1362373D01*
X9262731Y-1355574D01*
X9289542Y-1344449D01*
X9310205Y-1330325D01*
X9269966Y-1252656D01*
X9256400Y-1262635D01*
X9240932Y-1270303D01*
X9224426Y-1275157D01*
X9208051Y-1276744D01*
X9186998Y-1273843D01*
X9171628Y-1265876D01*
X9159346Y-1252495D01*
X9147082Y-1229911D01*
X9127176Y-1183841D01*
X9118536Y-1171812D01*
X8983347Y-846938D01*
X8878750Y-846938D01*
X9048499Y-1246825D01*
X9069144Y-1288832D01*
X9090387Y-1317930D01*
X9106984Y-1333783D01*
X9124236Y-1345732D01*
X9142288Y-1354169D01*
X9171720Y-1361921D01*
X9204998Y-1364611D01*
G37*
G36*
X9140457Y-1238032D02*
G01*
X9308313Y-846938D01*
X9195747Y-846938D01*
X9065321Y-1162042D01*
X9140457Y-1238032D01*
G37*
G36*
X8605687Y-841626D02*
G01*
X8576147Y-843680D01*
X8549565Y-849623D01*
X8525484Y-859272D01*
X8503756Y-873026D01*
X8485270Y-890987D01*
X8469766Y-913647D01*
X8458880Y-938952D01*
X8451850Y-970006D01*
X8449310Y-1008047D01*
X8449310Y-1223500D01*
X8558518Y-1223500D01*
X8558518Y-1024381D01*
X8561121Y-994703D01*
X8568051Y-973014D01*
X8578515Y-957366D01*
X8593142Y-945655D01*
X8611461Y-938385D01*
X8634569Y-935781D01*
X8659756Y-938595D01*
X8681433Y-946711D01*
X8699607Y-960332D01*
X8713490Y-979928D01*
X8721798Y-1004158D01*
X8724908Y-1037264D01*
X8724908Y-1223500D01*
X8834115Y-1223500D01*
X8834115Y-846938D01*
X8730068Y-846938D01*
X8730068Y-951321D01*
X8749607Y-919967D01*
X8734053Y-896336D01*
X8714832Y-877034D01*
X8691599Y-861654D01*
X8665767Y-850685D01*
X8637300Y-843950D01*
X8605687Y-841626D01*
G37*
G36*
X8073879Y-887588D02*
G01*
X8081798Y-878584D01*
X8103402Y-862570D01*
X8127897Y-851140D01*
X8155488Y-844081D01*
X8186810Y-841626D01*
X8221293Y-844348D01*
X8252930Y-852312D01*
X8282248Y-865439D01*
X8308745Y-883460D01*
X8331160Y-905723D01*
X8349812Y-932637D01*
X8363286Y-962477D01*
X8371651Y-996352D01*
X8374572Y-1035066D01*
X8371651Y-1073801D01*
X8363286Y-1107696D01*
X8349812Y-1137557D01*
X8331168Y-1164461D01*
X8308753Y-1186768D01*
X8282248Y-1204876D01*
X8252924Y-1218073D01*
X8221287Y-1226076D01*
X8186810Y-1228812D01*
X8154163Y-1226338D01*
X8126002Y-1219296D01*
X8101570Y-1208021D01*
X8080150Y-1192045D01*
X8068719Y-1178770D01*
X8068719Y-1223500D01*
X7964702Y-1223500D01*
X7964702Y-1035066D01*
X8071925Y-1035066D01*
X8075281Y-1065690D01*
X8084778Y-1090876D01*
X8099965Y-1111924D01*
X8119216Y-1126993D01*
X8141964Y-1136222D01*
X8168034Y-1139388D01*
X8194105Y-1136222D01*
X8216852Y-1126993D01*
X8236085Y-1111928D01*
X8251291Y-1090876D01*
X8260765Y-1065692D01*
X8264113Y-1035066D01*
X8260733Y-1003922D01*
X8251291Y-979073D01*
X8236120Y-958426D01*
X8216852Y-943445D01*
X8194103Y-934193D01*
X8168034Y-931019D01*
X8141965Y-934193D01*
X8119216Y-943445D01*
X8099930Y-958430D01*
X8084778Y-979073D01*
X8075313Y-1003924D01*
X8071925Y-1035066D01*
X7964702Y-1035066D01*
X7964702Y-704087D01*
X8073879Y-704087D01*
X8073879Y-887588D01*
G37*
G36*
X15056245Y1059174D02*
G01*
X15142785Y1033590D01*
X15221354Y991942D01*
X15288965Y936137D01*
X15344230Y867776D01*
X15386143Y787119D01*
X15411853Y697997D01*
X15420764Y596884D01*
X15411865Y495789D01*
X15386143Y406283D01*
X15344335Y325241D01*
X15289239Y256532D01*
X15221652Y200658D01*
X15142968Y159170D01*
X15056351Y133794D01*
X14960519Y125099D01*
X14864852Y133849D01*
X14778711Y159354D01*
X14700423Y200875D01*
X14633172Y256440D01*
X14578151Y324764D01*
X14536269Y405734D01*
X14510485Y495381D01*
X14501556Y596884D01*
X14510475Y698317D01*
X14536178Y787485D01*
X14577909Y868055D01*
X14632989Y936321D01*
X14700328Y992036D01*
X14778619Y1033590D01*
X14864777Y1059162D01*
X14960519Y1067937D01*
X15056245Y1059174D01*
G37*
G36*
X15931356Y-329896D02*
G01*
X7348139Y-329896D01*
X7348139Y135174D01*
X7514806Y135174D01*
X7514806Y-138500D01*
X8653375Y-138500D01*
X9001879Y-138500D01*
X9320249Y-138500D01*
X9322881Y741272D01*
X9755215Y17845D01*
X9907715Y17845D01*
X10339658Y725600D01*
X10339658Y-138500D01*
X10658120Y-138500D01*
X10658120Y50177D01*
X10902027Y50177D01*
X10908893Y-6831D01*
X10928667Y-55155D01*
X10961561Y-96826D01*
X11004123Y-128879D01*
X11051630Y-147918D01*
X11105726Y-154436D01*
X11160732Y-147882D01*
X11184313Y-138500D01*
X11555438Y-138500D01*
X11896431Y-138500D01*
X12244935Y-138500D01*
X12563306Y-138500D01*
X12565938Y741272D01*
X12998272Y17845D01*
X13150771Y17845D01*
X13582715Y725600D01*
X13582715Y-138500D01*
X13901177Y-138500D01*
X13901177Y596793D01*
X14157632Y596793D01*
X14164518Y488097D01*
X14184673Y387216D01*
X14217715Y292985D01*
X14263248Y204183D01*
X14319134Y124019D01*
X14385785Y51734D01*
X14461464Y-11004D01*
X14545912Y-63853D01*
X14640042Y-106992D01*
X14738929Y-137843D01*
X14845175Y-156752D01*
X14959878Y-163229D01*
X15074507Y-156719D01*
X15181164Y-137675D01*
X15280905Y-106534D01*
X15375747Y-63118D01*
X15460611Y-10048D01*
X15536444Y52833D01*
X15603182Y125222D01*
X15659125Y205361D01*
X15704696Y293993D01*
X15737693Y387977D01*
X15757815Y488554D01*
X15764689Y596884D01*
X15757806Y705209D01*
X15737676Y805565D01*
X15704696Y899135D01*
X15659161Y987425D01*
X15603194Y1067514D01*
X15536352Y1140111D01*
X15460387Y1203284D01*
X15375606Y1256436D01*
X15281088Y1299754D01*
X15181653Y1330781D01*
X15075154Y1349770D01*
X14960519Y1356266D01*
X14845389Y1349771D01*
X14738938Y1330823D01*
X14640042Y1299937D01*
X14545932Y1256829D01*
X14461484Y1203922D01*
X14385785Y1141027D01*
X14319099Y1068647D01*
X14263218Y988567D01*
X14217715Y900051D01*
X14184687Y806175D01*
X14164525Y705484D01*
X14157638Y596884D01*
X14157632Y596793D01*
X13901177Y596793D01*
X13901177Y1331536D01*
X13620542Y1331536D01*
X13069360Y417390D01*
X12528501Y1331536D01*
X12247866Y1331536D01*
X12244935Y-138500D01*
X11896431Y-138500D01*
X11896431Y1331536D01*
X11555438Y1331536D01*
X11555438Y-138500D01*
X11184313Y-138500D01*
X11208674Y-128808D01*
X11251264Y-96826D01*
X11284104Y-55162D01*
X11303850Y-6837D01*
X11310707Y50177D01*
X11303755Y108478D01*
X11283933Y156740D01*
X11251264Y197272D01*
X11208804Y228168D01*
X11160854Y246676D01*
X11105726Y253051D01*
X11051509Y246710D01*
X11003994Y228236D01*
X10961561Y197272D01*
X10928838Y156733D01*
X10908988Y108471D01*
X10902027Y50177D01*
X10658120Y50177D01*
X10658120Y1331536D01*
X10377485Y1331536D01*
X9826303Y417390D01*
X9285445Y1331536D01*
X9004810Y1331536D01*
X9001879Y-138500D01*
X8653375Y-138500D01*
X8653375Y1331536D01*
X7543383Y1331536D01*
X7543383Y1057770D01*
X8315679Y1057770D01*
X8315679Y739858D01*
X7632043Y739858D01*
X7632043Y475434D01*
X8315679Y475434D01*
X8315679Y135174D01*
X7514806Y135174D01*
X7348139Y135174D01*
X7348139Y1522933D01*
X15931356Y1522933D01*
X15931356Y-329896D01*
G37*
D11*
%TO.C,SW1*%
X-2720000Y-8040000D02*
X-2720000Y-5960000D01*
X-1450000Y-4280000D02*
X-1940000Y-4770000D01*
X-1450000Y-9720000D02*
X-1940000Y-9230000D01*
X1450000Y-4280000D02*
X-1450000Y-4280000D01*
X1450000Y-4280000D02*
X1940000Y-4770000D01*
X1450000Y-9720000D02*
X-1450000Y-9720000D01*
X1450000Y-9720000D02*
X1940000Y-9230000D01*
X2720000Y-8040000D02*
X2720000Y-5960000D01*
%TD*%
M02*
